<svg xmlns="http://www.w3.org/2000/svg" viewBox="0 0 1200 700" class="map" role="img" aria-labelledby="mapTitle mapDesc">
  <title id="mapTitle">Az Albion környékének vázlata</title>
  <desc id="mapDesc">Környékvázlat — az Albion a Kpt. Nálepku 41 címen található, pár lépésre a losonci vasútállomástól.</desc>
  <defs>
  <radialGradient id="albionGlow">
  <stop offset="0%" stop-color="#c9b085" stop-opacity="0.22"/>
  <stop offset="100%" stop-color="#c9b085" stop-opacity="0"/>
  </radialGradient>
  <filter id="nearShadow" x="-20%" y="-20%" width="140%" height="140%"><feGaussianBlur stdDeviation="3"/></filter>
  <mask id="routeMask"><path class="route-mask" pathLength="1" d="M1029.7 120.1L994.5 148 984.1 147.7 920.9 147.8 913.9 147.8 911.9 175 914.6 246.2 909.7 246.2 851.2 246.7 824.4 246.9 780.7 247.1 774.9 247.2 774.9 247.2 829.6 218.5" fill="none" stroke="#fff" stroke-width="12" stroke-linecap="round"/></mask>
  </defs>

  <g class="roads">
  <path class="rc" d="M202.8 374.2L-247.5-83.6" stroke-width="8"/><path class="rr" d="M202.8 374.2L-247.5-83.6" stroke-width="6" stroke-opacity="0.12" pathLength="1"/>
<path class="rc" d="M974.5 1164.6L313 488.2" stroke-width="8"/><path class="rr" d="M974.5 1164.6L313 488.2" stroke-width="6" stroke-opacity="0.12" pathLength="1"/>
<path class="rc" d="M856.1 79.9L792.1 80.5 777.9 84.2 773.1 88.5 781.5 162.2" stroke-width="8"/><path class="rr" d="M856.1 79.9L792.1 80.5 777.9 84.2 773.1 88.5 781.5 162.2" stroke-width="6" stroke-opacity="0.12" pathLength="1"/>
<path class="rc" d="M821.2 231.7L832.5 385.6 829.4 499.7 840.6 598.1 856 624.6 938.6 711.5" stroke-width="8"/><path class="rr" d="M821.2 231.7L832.5 385.6 829.4 499.7 840.6 598.1 856 624.6 938.6 711.5" stroke-width="6" stroke-opacity="0.12" pathLength="1"/>
<path class="rc" d="M938.6 711.5L899.4 719.6 834.3 728.7 789.2 712.3" stroke-width="6"/><path class="rr" d="M938.6 711.5L899.4 719.6 834.3 728.7 789.2 712.3" stroke-width="4" stroke-opacity="0.09" pathLength="1"/>
<path class="rc" d="M622.9 -347.5L642.8-331.4 705.1-47.5" stroke-width="8"/><path class="rr" d="M622.9 -347.5L642.8-331.4 705.1-47.5" stroke-width="6" stroke-opacity="0.12" pathLength="1"/>
<path class="rc" d="M780.7 247.1L774.9 247.2 812.7 396.9 779 446.9 682.3 479.4 732.7 531.8 477.2 617.5" stroke-width="4"/><path class="rr rr-d" d="M780.7 247.1L774.9 247.2 812.7 396.9 779 446.9 682.3 479.4 732.7 531.8 477.2 617.5" stroke-width="2" stroke-opacity="0.08" pathLength="1"/>
<path class="rc" d="M789.2 712.3L785.3 681.2 803.6 628.6" stroke-width="6"/><path class="rr" d="M789.2 712.3L785.3 681.2 803.6 628.6" stroke-width="4" stroke-opacity="0.09" pathLength="1"/>
<path class="rc" d="M576.5 544.4L483.7 575.5 663 755.6 755.8 724.5" stroke-width="6"/><path class="rr" d="M576.5 544.4L483.7 575.5 663 755.6 755.8 724.5" stroke-width="4" stroke-opacity="0.09" pathLength="1"/>
<path class="rc" d="M-229.8 533.4L-173.1 515.1 202.8 374.2" stroke-width="8"/><path class="rr" d="M-229.8 533.4L-173.1 515.1 202.8 374.2" stroke-width="6" stroke-opacity="0.12" pathLength="1"/>
<path class="rc" d="M202.8 374.2L590.1 226.7 618.7 210.7" stroke-width="8"/><path class="rr" d="M202.8 374.2L590.1 226.7 618.7 210.7" stroke-width="6" stroke-opacity="0.12" pathLength="1"/>
<path class="rc" d="M689.8 -365.9L708.3-363.8 799.3-340.2 837.7-332.9 860.2-106.7 871.4-40.6 777.1-37.2 768.4-179.7 851.3-195.7" stroke-width="6"/><path class="rr" d="M689.8 -365.9L708.3-363.8 799.3-340.2 837.7-332.9 860.2-106.7 871.4-40.6 777.1-37.2 768.4-179.7 851.3-195.7" stroke-width="4" stroke-opacity="0.09" pathLength="1"/>
<path class="rc" d="M576.5 544.4L755.8 724.5" stroke-width="6"/><path class="rr" d="M576.5 544.4L755.8 724.5" stroke-width="4" stroke-opacity="0.09" pathLength="1"/>
<path class="rc" d="M532.2 559.2L711.5 739.3" stroke-width="6"/><path class="rr" d="M532.2 559.2L711.5 739.3" stroke-width="4" stroke-opacity="0.09" pathLength="1"/>
<path class="rc" d="M313 488.2L338.2 478.2 373.7 473.4 400.2 472.5 420.7 468.4 572.4 416.3 576.3 409.5 574 402.7 566.4 397.5 546.5 395.2 395.7 445.1 338.2 478.2" stroke-width="6"/><path class="rr" d="M313 488.2L338.2 478.2 373.7 473.4 400.2 472.5 420.7 468.4 572.4 416.3 576.3 409.5 574 402.7 566.4 397.5 546.5 395.2 395.7 445.1 338.2 478.2" stroke-width="4" stroke-opacity="0.09" pathLength="1"/>
<path class="rc" d="M938.6 711.5L953.1 727.3 970.2 761.1 976.7 1060.6 974.5 1164.6" stroke-width="8"/><path class="rr" d="M938.6 711.5L953.1 727.3 970.2 761.1 976.7 1060.6 974.5 1164.6" stroke-width="6" stroke-opacity="0.12" pathLength="1"/>
<path class="rc" d="M193.4 -225.3L618.7 210.7" stroke-width="8"/><path class="rr" d="M193.4 -225.3L618.7 210.7" stroke-width="6" stroke-opacity="0.12" pathLength="1"/>
<path class="rc" d="M683.5 508.5L576.5 544.4" stroke-width="6"/><path class="rr" d="M683.5 508.5L576.5 544.4" stroke-width="4" stroke-opacity="0.09" pathLength="1"/>
<path class="rc" d="M803.6 628.6L683.5 508.5" stroke-width="6"/><path class="rr" d="M803.6 628.6L683.5 508.5" stroke-width="4" stroke-opacity="0.09" pathLength="1"/>
<path class="rc" d="M695.3 179.3L735.8 167.1 781.5 162.2" stroke-width="8"/><path class="rr" d="M695.3 179.3L735.8 167.1 781.5 162.2" stroke-width="6" stroke-opacity="0.12" pathLength="1"/>
<path class="rc" d="M755.8 724.5L789.2 712.3" stroke-width="6"/><path class="rr" d="M755.8 724.5L789.2 712.3" stroke-width="4" stroke-opacity="0.09" pathLength="1"/>
<path class="rc" d="M856.1 79.9L859.9 66.1 853.1 9.6 795.3 11.6" stroke-width="6"/><path class="rr" d="M856.1 79.9L859.9 66.1 853.1 9.6 795.3 11.6" stroke-width="4" stroke-opacity="0.09" pathLength="1"/>
<path class="rc" d="M821.2 231.7L872.2 230.3 885.5 222.9 888.2 99.2 873.4 85.8 856.1 79.9" stroke-width="8"/><path class="rr" d="M821.2 231.7L872.2 230.3 885.5 222.9 888.2 99.2 873.4 85.8 856.1 79.9" stroke-width="6" stroke-opacity="0.12" pathLength="1"/>
<path class="rc" d="M808 759.4L630.7 814.1" stroke-width="6"/><path class="rr" d="M808 759.4L630.7 814.1" stroke-width="4" stroke-opacity="0.09" pathLength="1"/>
<path class="rc" d="M70.5 474.1L114.2 530.4" stroke-width="6"/><path class="rr" d="M70.5 474.1L114.2 530.4" stroke-width="4" stroke-opacity="0.09" pathLength="1"/>
<path class="rc" d="M260.7 434.1L86.1 491.5" stroke-width="6"/><path class="rr" d="M260.7 434.1L86.1 491.5" stroke-width="4" stroke-opacity="0.09" pathLength="1"/>
<path class="rc" d="M628.9 526.8L785.3 681.2" stroke-width="6"/><path class="rr" d="M628.9 526.8L785.3 681.2" stroke-width="4" stroke-opacity="0.09" pathLength="1"/>
<path class="rc" d="M795.3 11.6L800.7 56.8" stroke-width="6"/><path class="rr" d="M795.3 11.6L800.7 56.8" stroke-width="4" stroke-opacity="0.09" pathLength="1"/>
<path class="rc" d="M781.5 162.2L821.2 231.7" stroke-width="8"/><path class="rr" d="M781.5 162.2L821.2 231.7" stroke-width="6" stroke-opacity="0.12" pathLength="1"/>
<path class="rc" d="M742 70.6L915.9 64" stroke-width="4"/><path class="rr rr-d" d="M742 70.6L915.9 64" stroke-width="2" stroke-opacity="0.08" pathLength="1"/>
<path class="rc" d="M991.6 47.1L972.6-56 968.5-131.5 1034-131.4" stroke-width="4"/><path class="rr rr-d" d="M991.6 47.1L972.6-56 968.5-131.5 1034-131.4" stroke-width="2" stroke-opacity="0.08" pathLength="1"/>
<path class="rc" d="M828.5 334.8L861.8 335.4 905.6 333.1 915.5 330.7 997.8 330" stroke-width="4"/><path class="rr rr-d" d="M828.5 334.8L861.8 335.4 905.6 333.1 915.5 330.7 997.8 330" stroke-width="2" stroke-opacity="0.08" pathLength="1"/>
<path class="rc" d="M803.1 361.3L766.1 365.3 633.5 409.3 576.3 409.5" stroke-width="4"/><path class="rr rr-d" d="M803.1 361.3L766.1 365.3 633.5 409.3 576.3 409.5" stroke-width="2" stroke-opacity="0.08" pathLength="1"/>
<path class="rc" d="M682.3 479.4L473.2 546.7 425.1 565.1" stroke-width="4"/><path class="rr rr-d" d="M682.3 479.4L473.2 546.7 425.1 565.1" stroke-width="2" stroke-opacity="0.08" pathLength="1"/>
<path class="rc" d="M649 788.7L650.6 796.1" stroke-width="4"/><path class="rr rr-d" d="M649 788.7L650.6 796.1" stroke-width="2" stroke-opacity="0.08" pathLength="1"/>
<path class="rc" d="M643.4 790.4L649 788.7 338.2 478.2" stroke-width="4"/><path class="rr rr-d" d="M643.4 790.4L649 788.7 338.2 478.2" stroke-width="2" stroke-opacity="0.08" pathLength="1"/>
<path class="rc" d="M729.8 -6.1L741.8 1.1 795.3 11.6" stroke-width="4"/><path class="rr rr-d" d="M729.8 -6.1L741.8 1.1 795.3 11.6" stroke-width="2" stroke-opacity="0.07" pathLength="1"/>
<path class="rc" d="M709.6 -27.1L718.8-9.1 729.8-6.1" stroke-width="4"/><path class="rr rr-d" d="M709.6 -27.1L718.8-9.1 729.8-6.1" stroke-width="2" stroke-opacity="0.08" pathLength="1"/>
<path class="rc" d="M718.8 -9.1L763.3 135.1 624.9 186.4" stroke-width="4"/><path class="rr rr-d" d="M718.8 -9.1L763.3 135.1 624.9 186.4" stroke-width="2" stroke-opacity="0.08" pathLength="1"/>
<path class="rc" d="M598.9 -324.9L622-319 670.1-63" stroke-width="4"/><path class="rr rr-d" d="M598.9 -324.9L622-319 670.1-63" stroke-width="2" stroke-opacity="0.08" pathLength="1"/>
<path class="rc" d="M675 -329.3L706.3-114.4 729.8-6.1" stroke-width="4"/><path class="rr rr-d" d="M675 -329.3L706.3-114.4 729.8-6.1" stroke-width="2" stroke-opacity="0.07" pathLength="1"/>
<path class="rc" d="M624.9 186.4L577.1 204" stroke-width="4"/><path class="rr rr-d" d="M624.9 186.4L577.1 204" stroke-width="2" stroke-opacity="0.08" pathLength="1"/>
<path class="rc" d="M680.7 167.3L708.5 190" stroke-width="4"/><path class="rr rr-d" d="M680.7 167.3L708.5 190" stroke-width="2" stroke-opacity="0.08" pathLength="1"/>
<path class="rc" d="M871.9 -11.6L853.1 9.6" stroke-width="6"/><path class="rr" d="M871.9 -11.6L853.1 9.6" stroke-width="4" stroke-opacity="0.09" pathLength="1"/>
<path class="rc" d="M871.4 -40.6L871.9-11.6" stroke-width="6"/><path class="rr" d="M871.4 -40.6L871.9-11.6" stroke-width="4" stroke-opacity="0.09" pathLength="1"/>
<path class="rc" d="M1187.7 721.6L1186.9 684.3 1208.3 593.7 1205.2 556.2 1211.7 485.1 1207.2 440.4 1210.3 403.8 1224.5 339.6 1249.3 293.3" stroke-width="6"/><path class="rr" d="M1187.7 721.6L1186.9 684.3 1208.3 593.7 1205.2 556.2 1211.7 485.1 1207.2 440.4 1210.3 403.8 1224.5 339.6 1249.3 293.3" stroke-width="4" stroke-opacity="0.09" pathLength="1"/>
<path class="rc" d="M915.5 330.7L909.7 246.2" stroke-width="4"/><path class="rr rr-d" d="M915.5 330.7L909.7 246.2" stroke-width="2" stroke-opacity="0.08" pathLength="1"/>
<path class="rc" d="M981.9 246.5L995.9 246.5" stroke-width="4"/><path class="rr rr-d" d="M981.9 246.5L995.9 246.5" stroke-width="2" stroke-opacity="0.08" pathLength="1"/>
<path class="rc" d="M931.2 246.3L981.9 246.5" stroke-width="4"/><path class="rr rr-d" d="M931.2 246.3L981.9 246.5" stroke-width="2" stroke-opacity="0.08" pathLength="1"/>
<path class="rc" d="M914.6 246.2L931.2 246.3" stroke-width="4"/><path class="rr rr-d" d="M914.6 246.2L931.2 246.3" stroke-width="2" stroke-opacity="0.08" pathLength="1"/>
<path class="rc" d="M984.1 147.7L994.5 148" stroke-width="4"/><path class="rr rr-d" d="M984.1 147.7L994.5 148" stroke-width="2" stroke-opacity="0.08" pathLength="1"/>
<path class="rc" d="M920.9 147.8L984.1 147.7" stroke-width="6"/><path class="rr" d="M920.9 147.8L984.1 147.7" stroke-width="4" stroke-opacity="0.08" pathLength="1"/>
<path class="rc" d="M913.9 147.8L920.9 147.8" stroke-width="4"/><path class="rr rr-d" d="M913.9 147.8L920.9 147.8" stroke-width="2" stroke-opacity="0.08" pathLength="1"/>
<path class="rc" d="M650.6 796.1L653.2 799.8" stroke-width="4"/><path class="rr rr-d" d="M650.6 796.1L653.2 799.8" stroke-width="2" stroke-opacity="0.08" pathLength="1"/>
<path class="rc" d="M629.7 794.5L643.4 790.4" stroke-width="4"/><path class="rr rr-d" d="M629.7 794.5L643.4 790.4" stroke-width="2" stroke-opacity="0.08" pathLength="1"/>
<path class="rc" d="M605.3 802.2L629.7 794.5" stroke-width="4"/><path class="rr rr-d" d="M605.3 802.2L629.7 794.5" stroke-width="2" stroke-opacity="0.08" pathLength="1"/>
<path class="rc" d="M215.6 387.5L191.6 395.9 392.2 601.9 596.8 805.1" stroke-width="4"/><path class="rr rr-d" d="M215.6 387.5L191.6 395.9 392.2 601.9 596.8 805.1" stroke-width="2" stroke-opacity="0.08" pathLength="1"/>
<path class="rc" d="M234.9 656.9L309 735 496.4 676.4" stroke-width="6"/><path class="rr" d="M234.9 656.9L309 735 496.4 676.4" stroke-width="4" stroke-opacity="0.09" pathLength="1"/>
<path class="rc" d="M578.7 760.8L594.8 759 625.1 748.2" stroke-width="4"/><path class="rr rr-d" d="M578.7 760.8L594.8 759 625.1 748.2" stroke-width="2" stroke-opacity="0.08" pathLength="1"/>
<path class="rc" d="M449.2 589.3L465.4 584.1" stroke-width="4"/><path class="rr rr-d" d="M449.2 589.3L465.4 584.1" stroke-width="2" stroke-opacity="0.08" pathLength="1"/>
<path class="rc" d="M732.7 531.8L817.2 616.4" stroke-width="6"/><path class="rr" d="M732.7 531.8L817.2 616.4" stroke-width="4" stroke-opacity="0.08" pathLength="1"/>
<path class="rc" d="M465.4 584.1L625.1 748.2" stroke-width="6"/><path class="rr" d="M465.4 584.1L625.1 748.2" stroke-width="4" stroke-opacity="0.08" pathLength="1"/>
<path class="rc" d="M522.7 582.6L667.6 733.1" stroke-width="6"/><path class="rr" d="M522.7 582.6L667.6 733.1" stroke-width="4" stroke-opacity="0.08" pathLength="1"/>
<path class="rc" d="M567.6 569.1L712.6 718.6" stroke-width="6"/><path class="rr" d="M567.6 569.1L712.6 718.6" stroke-width="4" stroke-opacity="0.08" pathLength="1"/>
<path class="rc" d="M612.7 554.5L758.2 704.4" stroke-width="6"/><path class="rr" d="M612.7 554.5L758.2 704.4" stroke-width="4" stroke-opacity="0.08" pathLength="1"/>
<path class="rc" d="M681.6 532L778.3 632.6" stroke-width="6"/><path class="rr" d="M681.6 532L778.3 632.6" stroke-width="4" stroke-opacity="0.08" pathLength="1"/>
<path class="rc" d="M913.8 1079.7L926.1 1081.9 939.1 1080.7 951.8 1072.4 944.1 758.6 933.1 748.4 916.3 743.4 884.9 698.4 887.7 687.5 884.9 679.1 827.5 621.1 817.2 616.4" stroke-width="4"/><path class="rr rr-d" d="M913.8 1079.7L926.1 1081.9 939.1 1080.7 951.8 1072.4 944.1 758.6 933.1 748.4 916.3 743.4 884.9 698.4 887.7 687.5 884.9 679.1 827.5 621.1 817.2 616.4" stroke-width="2" stroke-opacity="0.08" pathLength="1"/>
<path class="rc" d="M52.5 646L-81 687" stroke-width="6"/><path class="rr" d="M52.5 646L-81 687" stroke-width="4" stroke-opacity="0.09" pathLength="1"/>
<path class="rc" d="M215.6 387.5L239.8 378.9" stroke-width="4"/><path class="rr rr-d" d="M215.6 387.5L239.8 378.9" stroke-width="2" stroke-opacity="0.08" pathLength="1"/>
<path class="rc" d="M183.2 354.3L577.1 204" stroke-width="4"/><path class="rr rr-d" d="M183.2 354.3L577.1 204" stroke-width="2" stroke-opacity="0.08" pathLength="1"/>
<path class="rc" d="M338.2 478.2L233.6 372.6 244.6 365.2 227.4 350.9 212.8 348.2 203.2 343.4-209-76.3-219.1-72.9" stroke-width="4"/><path class="rr rr-d" d="M338.2 478.2L233.6 372.6 244.6 365.2 227.4 350.9 212.8 348.2 203.2 343.4-209-76.3-219.1-72.9" stroke-width="2" stroke-opacity="0.08" pathLength="1"/>
<path class="rc" d="M670.1 -63L705.1-47.5" stroke-width="4"/><path class="rr rr-d" d="M670.1 -63L705.1-47.5" stroke-width="2" stroke-opacity="0.08" pathLength="1"/>
<path class="rc" d="M618.7 210.7L695.3 179.3" stroke-width="8"/><path class="rr" d="M618.7 210.7L695.3 179.3" stroke-width="6" stroke-opacity="0.12" pathLength="1"/>
<path class="rc" d="M851.2 246.7L780.7 247.1" stroke-width="4"/><path class="rr rr-d" d="M851.2 246.7L780.7 247.1" stroke-width="2" stroke-opacity="0.08" pathLength="1"/>
<path class="rc" d="M1057.3 49.2L993 50.1 991.6 47.1 916.1 46.6 911.9 175 914.6 246.2 851.2 246.7" stroke-width="4"/><path class="rr rr-d" d="M1057.3 49.2L993 50.1 991.6 47.1 916.1 46.6 911.9 175 914.6 246.2 851.2 246.7" stroke-width="2" stroke-opacity="0.08" pathLength="1"/>
<path class="rc" d="M774.9 247.2L767.9 212.6 759.7 196.2 741 186.6 728.5 186.5 710.8 191.6 708.5 190" stroke-width="4"/><path class="rr rr-d" d="M774.9 247.2L767.9 212.6 759.7 196.2 741 186.6 728.5 186.5 710.8 191.6 708.5 190" stroke-width="2" stroke-opacity="0.08" pathLength="1"/>
<path class="rc" d="M705.1 -47.5L709.6-27.1" stroke-width="8"/><path class="rr" d="M705.1 -47.5L709.6-27.1" stroke-width="6" stroke-opacity="0.12" pathLength="1"/>
<path class="rc" d="M313 488.2L202.8 374.2" stroke-width="8"/><path class="rr" d="M313 488.2L202.8 374.2" stroke-width="6" stroke-opacity="0.12" pathLength="1"/>
<path class="rc" d="M230.7 -220.6L624.9 186.4" stroke-width="4"/><path class="rr rr-d" d="M230.7 -220.6L624.9 186.4" stroke-width="2" stroke-opacity="0.08" pathLength="1"/>
<path class="rc" d="M-256.1 -61.4L160.2 363.2" stroke-width="4"/><path class="rr rr-d" d="M-256.1 -61.4L160.2 363.2" stroke-width="2" stroke-opacity="0.08" pathLength="1"/>
<path class="rc" d="M577.1 204L177.3-200.4" stroke-width="4"/><path class="rr rr-d" d="M577.1 204L177.3-200.4" stroke-width="2" stroke-opacity="0.08" pathLength="1"/>
<path class="rc" d="M244.6 365.2L710.8 191.6" stroke-width="4"/><path class="rr rr-d" d="M244.6 365.2L710.8 191.6" stroke-width="2" stroke-opacity="0.08" pathLength="1"/>
<path class="rc" d="M-237.2 506.7L-171.8 488.2 183.2 354.3" stroke-width="4"/><path class="rr rr-d" d="M-237.2 506.7L-171.8 488.2 183.2 354.3" stroke-width="2" stroke-opacity="0.08" pathLength="1"/>
<path class="rc" d="M-165.2 521.7L178.2 392.5 191.6 395.9" stroke-width="4"/><path class="rr rr-d" d="M-165.2 521.7L178.2 392.5 191.6 395.9" stroke-width="2" stroke-opacity="0.08" pathLength="1"/>
  </g>

  <ellipse class="glow" cx="829.6" cy="218.5" rx="106.2" ry="53.1" fill="url(#albionGlow)"/>

  <g class="shadows" filter="url(#nearShadow)"><path d="M727.1 134.1L737.5 142.6 733.1 147 721.5 149 720.9 152 712.4 152.7 702.1 144.2 727.1 134.1Z"/><path d="M492 157.2L516.2 149.2 524 157.6 500 165.4 492 157.2Z"/><path d="M432.4 176.8L474.5 162.8 493.4 182.3 453.5 195.2 432.4 176.8Z"/><path d="M643 182.6L636.5 185 626.3 183.2 618.1 174.9 630.7 170.6 643 182.6Z"/><path d="M386.6 205.3L366.9 212.3 355.1 201.4 374.9 194.4 386.6 205.3Z"/><path d="M440.1 208.7L460.5 201.2 500.1 236.1 443.1 256.9 424.9 239.9 443.8 232.9 440.5 230 442.5 226.4 454 222 440.1 208.7Z"/><path d="M345.3 230.3L332.7 235.1 320.9 225 334.1 220.1 345.3 230.3Z"/><path d="M338.3 240L315.5 248.7 269.5 208.6 292.4 199.9 338.3 240Z"/><path d="M332.7 235.1L355.1 226.6 368.7 238.4 378 240.6 411.1 227.6 443.1 256.9 383.2 279.2 332.7 235.1Z"/><path d="M262.9 270.6L247.4 256.5 267.7 248.6 277.7 256.5 289.1 252.3 305.5 266.9 274.1 279.9 262.9 270.6Z"/><path d="M706.3 320.9L694.3 258.6 662.2 270.5 624.3 237.4 729 197.6 741.8 200.7 763.4 316.2 706.3 320.9Z"/><path d="M340.1 242L385 281.2 309.3 309.5 276 282 317.2 263.1 322.3 264 330.8 271.7 348.4 264.8 327.6 246.8 340.1 242Z"/><path d="M912.8 258.1L912.8 290.7 865.8 292 865.9 257.9 912.8 258.1Z"/><path d="M923.8 296.8L924.1 255.2 982.9 255.6 982.7 297.1 923.8 296.8Z"/><path d="M546.9 287.4L555.2 294.9 543.7 299 551.3 306.6 525.2 316.1 492.1 283.3 538.9 265.6 558.6 283 546.9 287.4Z"/><path d="M248.1 297.2L234.5 284.1 264.7 272.5 309.2 309.4 260.5 327.8 233.4 303 248.1 297.2Z"/><path d="M871.9 287.8L871.9 286.2 908.9 286.4 908.8 329.9 871.8 329.7 871.9 287.8Z"/><path d="M667 349.6L652.9 335 642.4 340.1 615.3 310.6 626 307.3 595.2 274.5 571.1 283.8 549.3 264.5 598.2 246.6 688.1 342.8 667 349.6Z"/><path d="M562.7 353L537.6 360.2 486.9 312.7 469.9 318.2 452.5 301.1 493.9 285.3 562.7 353Z"/><path d="M546.5 308.3L583.1 342.8 560.9 351.1 525.2 316.1 546.5 308.3Z"/><path d="M452.5 301.2L469.9 318.2 454.9 323.5 509.6 377.5 485 385.8 410.4 317.6 452.5 301.2Z"/><path d="M665.1 347.5L610.6 365 598.1 351.7 651 332.9 665.1 347.5Z"/><path d="M762.9 315.7L772.6 368.5 717.8 386.7 705.8 320.4 762.9 315.7Z"/><path d="M367.6 367.8L340.9 343.6 410.4 317.6 448.5 351.6 426.2 360.2 415.1 350.5 367.6 367.8Z"/><path d="M583.5 373.6L560.9 351.1 573.2 346.6 580 352.9 588 350.3 591.2 354 598.1 351.7 610.6 365 583.5 373.6Z"/><path d="M674.1 344.5L684.8 355.7 595.3 385.4 583.5 373.6 674.1 344.5Z"/><path d="M368.5 368.1L344.3 376.5 316 350.3 339.1 341.7 368.5 368.1Z"/><path d="M306.8 375.8L300.1 378.2 282.6 362.7 316 350.3 333.1 365.9 306.8 375.8Z"/><path d="M300.1 378.2L306.8 375.8 309.9 378.2 316.5 375.7 313.8 373.1 333.1 365.9 340.1 372.3 306.3 384.2 300.1 378.2Z"/><path d="M285.2 383.5L293.9 392 266.9 401.9 245.5 381.2 249.3 374.9 282.6 362.7 300.1 378.2 285.2 383.5Z"/><path d="M306.3 384.2L309.4 387 293.9 392 285.2 383.5 300.1 378.2 306.3 384.2Z"/><path d="M517.8 390.9L497.9 397.4 483.2 383.8 507.8 375.5 512.2 379.8 507.7 381.3 517.8 390.9Z"/><path d="M605.8 396.5L691.2 368 698.1 374.7 715.1 373.9 717.7 386.6 639.3 413.1 622.6 413.4 605.8 396.5Z"/><path d="M394.7 391.6L400.6 389.2 405.8 393.9 410.5 392.1 425.6 406 415.4 409.9 394.7 391.6Z"/><path d="M463.2 405.1L424.4 417.8 420.4 414.5 458.8 400.8 463.2 405.1Z"/><path d="M400.4 420.5L419.8 413.8 426.4 420 406.6 427 400.4 420.5Z"/><path d="M284.8 420.3L338.3 403.1 367.4 431.4 400.6 421.3 408.4 429 322.2 458.2 284.8 420.3Z"/><path d="M433.5 558L380.3 504.5 731.2 390 758.2 417.3 740.9 422.9 766.9 449.1 569.9 513.5 572.4 516 525.6 531.3 523.1 528.8 433.5 558Z"/><path d="M694 499.2L713.6 492.8 834.9 615.5 815.3 621.9 694 499.2Z"/></g>

  <g class="buildings">
  <g class="b" style="--d:0"><path class="wd" d="M733.9 138.7L729.6 143.2 729.6 131.5 733.9 127ZM729.6 143.2L718 145.2 718 133.5 729.6 131.5ZM717.4 148.2L708.9 148.9 708.9 137.2 717.4 136.5ZM708.9 148.9L698.6 140.4 698.6 128.7 708.9 137.2Z"/><path class="wl" d="M718 145.2L717.4 148.2 717.4 136.5 718 133.5Z"/><path class="rf" d="M723.6 118.6L733.9 127 729.6 131.5 718 133.5 717.4 136.5 708.9 137.2 698.6 128.7 723.6 118.6Z"/></g>
<g class="b" style="--d:0"><path class="wd" d="M520.5 153.8L496.5 161.6 496.5 149.9 520.5 142.1ZM496.5 161.6L488.5 153.3 488.5 141.6 496.5 149.9Z"/><path class="rf" d="M488.5 141.6L512.7 133.6 520.5 142.1 496.5 149.9 488.5 141.6Z"/></g>
<g class="b" style="--d:1"><path class="wd" d="M489.9 178.5L450 191.4 450 179.7 489.9 166.8ZM450 191.4L428.9 172.9 428.9 161.2 450 179.7Z"/><path class="rf" d="M428.9 161.2L471 147.3 489.9 166.8 450 179.7 428.9 161.2Z"/></g>
<g class="b" style="--d:1"><path class="wd" d="M639.5 178.7L633 181.2 633 169.5 639.5 167ZM633 181.2L622.8 179.3 622.8 167.7 633 169.5Z"/><path class="rf" d="M639.5 167L633 169.5 622.8 167.7 614.5 159.4 627.2 155.1 639.5 167Z"/></g>
<g class="b" style="--d:2"><path class="wd" d="M383.1 201.4L363.4 208.4 363.4 196.7 383.1 189.8ZM363.4 208.4L351.6 197.5 351.6 185.9 363.4 196.7Z"/><path class="rf" d="M383.1 189.8L363.4 196.7 351.6 185.9 371.4 178.8 383.1 189.8Z"/></g>
<g class="b" style="--d:3"><path class="wd" d="M496.6 232.3L439.6 253 439.6 241.3 496.6 220.6ZM439.6 253L421.4 236.1 421.4 224.4 439.6 241.3ZM421.4 236.1L440.3 229 440.3 217.3 421.4 224.4ZM440.3 229L437 226.1 437 214.5 440.3 217.3Z"/><path class="wl" d="M437 226.1L439 222.6 439 210.9 437 214.5Z"/><path class="rf" d="M436.6 193.2L457 185.7 496.6 220.6 439.6 241.3 421.4 224.4 440.3 217.3 437 214.5 439 210.9 450.5 206.4 436.6 193.2Z"/></g>
<g class="b" style="--d:3"><path class="wd" d="M341.8 226.5L329.2 231.3 329.2 219.6 341.8 214.8ZM329.2 231.3L317.4 221.1 317.4 209.5 329.2 219.6Z"/><path class="rf" d="M341.8 214.8L329.2 219.6 317.4 209.5 330.6 204.6 341.8 214.8Z"/></g>
<g class="b" style="--d:4"><path class="wd" d="M334.8 236.1L312 244.9 312 233.2 334.8 224.5ZM312 244.9L266 204.7 266 193.1 312 233.2Z"/><path class="rf" d="M334.8 224.5L312 233.2 266 193.1 288.9 184.4 334.8 224.5Z"/></g>
<g class="b" style="--d:5"><path class="wd" d="M439.6 253L379.7 275.3 379.7 263.6 439.6 241.3ZM379.7 275.3L329.2 231.3 329.2 219.6 379.7 263.6Z"/><path class="rf" d="M329.2 219.6L351.6 211 365.2 222.8 374.5 225.1 407.6 212 439.6 241.3 379.7 263.6 329.2 219.6Z"/></g>
<g class="b" style="--d:5"><path class="wd" d="M259.4 266.7L243.9 252.7 243.9 241 259.4 255ZM302 263L270.6 276.1 270.6 264.4 302 251.3ZM270.6 276.1L259.4 266.7 259.4 255 270.6 264.4Z"/><path class="rf" d="M259.4 255L243.9 241 264.2 233.1 274.1 241 285.6 236.8 302 251.3 270.6 264.4 259.4 255Z"/></g>
<g class="b" style="--d:6"><path class="wd" d="M700.5 314.5L688.5 252.2 688.5 232.7 700.5 294.9ZM757.5 309.8L700.5 314.5 700.5 294.9 757.5 290.2Z"/><path class="rf" d="M700.5 294.9L688.5 232.7 656.3 244.6 618.5 211.4 723.2 171.6 736 174.8 757.5 290.2 700.5 294.9Z"/></g>
<g class="b" style="--d:7"><path class="wd" d="M379.7 275.3L304 303.6 304 285.8 379.7 257.5ZM304 303.6L270.6 276.1 270.6 258.3 304 285.8ZM316.9 258.2L325.5 265.8 325.5 247.9 316.9 240.3ZM325.5 265.8L343.1 258.9 343.1 241.1 325.5 247.9Z"/><path class="wl" d="M270.6 276.1L311.8 257.2 311.8 239.4 270.6 258.3Z"/><path class="rf" d="M334.8 218.3L379.7 257.5 304 285.8 270.6 258.3 311.8 239.4 316.9 240.3 325.5 247.9 343.1 241.1 322.2 223.1 334.8 218.3Z"/></g>
<g class="b b-a" style="--d:7"><path class="wd" d="M905.4 250L905.4 282.5 905.4 257.9 905.4 225.4ZM905.4 282.5L858.5 283.9 858.5 259.2 905.4 257.9Z"/><path class="wl" d="M858.5 283.9L858.5 249.8 858.5 225.1 858.5 259.2Z"/><path class="rf rf-a" d="M905.4 225.4L905.4 257.9 858.5 259.2 858.5 225.1 905.4 225.4Z"/></g>
<g class="b" style="--d:8"><path class="wd" d="M977.4 291.3L918.6 291 918.6 273.4 977.4 273.7Z"/><path class="rf" d="M918.6 273.4L918.8 231.8 977.6 232.1 977.4 273.7 918.6 273.4Z"/></g>
<g class="b" style="--d:8"><path class="wd" d="M551.7 291L540.2 295.1 540.2 283.5 551.7 279.3ZM540.2 295.1L547.8 302.7 547.8 291 540.2 283.5ZM547.8 302.7L521.7 312.3 521.7 300.6 547.8 291ZM521.7 312.3L488.6 279.4 488.6 267.8 521.7 300.6Z"/><path class="rf" d="M543.3 271.9L551.7 279.3 540.2 283.5 547.8 291 521.7 300.6 488.6 267.8 535.4 250.1 555.1 267.4 543.3 271.9Z"/></g>
<g class="b" style="--d:9"><path class="wd" d="M304 303.6L255.2 322 255.2 304.4 304 286.1ZM255.2 322L228.1 297.2 228.1 279.6 255.2 304.4Z"/><path class="wl" d="M228.1 297.2L242.9 291.4 242.9 273.9 228.1 279.6Z"/><path class="rf" d="M242.9 273.9L229.3 260.8 259.4 249.2 304 286.1 255.2 304.4 228.1 279.6 242.9 273.9Z"/></g>
<g class="b" style="--d:10"><path class="wd" d="M905.4 282.5L905.3 326 905.3 314.3 905.4 270.8ZM905.3 326L868.3 325.8 868.3 314.2 905.3 314.3Z"/><path class="wl" d="M868.3 325.8L868.4 283.9 868.4 272.2 868.3 314.2Z"/><path class="rf" d="M868.4 272.2L868.4 270.7 905.4 270.8 905.3 314.3 868.3 314.2 868.4 272.2Z"/></g>
<g class="b" style="--d:10"><path class="wd" d="M647.5 329.1L637 334.1 637 316.1 647.5 311ZM637 334.1L609.9 304.7 609.9 286.7 637 316.1ZM682.7 336.9L661.6 343.6 661.6 325.6 682.7 318.9Z"/><path class="wl" d="M661.6 343.6L647.5 329.1 647.5 311 661.6 325.6Z"/><path class="rf" d="M661.6 325.6L647.5 311 637 316.1 609.9 286.7 620.6 283.4 589.8 250.5 565.7 259.8 543.9 240.6 592.8 222.7 682.7 318.9 661.6 325.6Z"/></g>
<g class="b" style="--d:11"><path class="wd" d="M557.4 347.2L532.3 354.4 532.3 336.7 557.4 329.5ZM532.3 354.4L481.5 306.9 481.5 289.2 532.3 336.7Z"/><path class="rf" d="M557.4 329.5L532.3 336.7 481.5 289.2 464.6 294.7 447.2 277.6 488.6 261.8 557.4 329.5Z"/></g>
<g class="b" style="--d:12"><path class="wd" d="M579.6 338.9L557.4 347.2 557.4 335.5 579.6 327.3ZM557.4 347.2L521.7 312.3 521.7 300.6 557.4 335.5Z"/><path class="wl" d="M543 304.4L579.6 338.9 579.6 327.3 543 292.7Z"/><path class="rf" d="M543 292.7L579.6 327.3 557.4 335.5 521.7 300.6 543 292.7Z"/></g>
<g class="b" style="--d:12"><path class="wd" d="M504.3 371.7L479.7 379.9 479.7 362.2 504.3 353.9ZM479.7 379.9L405.1 311.7 405.1 294 479.7 362.2Z"/><path class="wl" d="M449.6 317.7L504.3 371.7 504.3 353.9 449.6 299.9Z"/><path class="rf" d="M447.2 277.6L464.6 294.7 449.6 299.9 504.3 353.9 479.7 362.2 405.1 294 447.2 277.6Z"/></g>
<g class="b" style="--d:13"><path class="wd" d="M661.6 343.6L607.1 361.1 607.1 349.4 661.6 331.9ZM607.1 361.1L594.6 347.8 594.6 336.1 607.1 349.4Z"/><path class="rf" d="M661.6 331.9L607.1 349.4 594.6 336.1 647.5 317.4 661.6 331.9Z"/></g>
<g class="b" style="--d:14"><path class="wd" d="M767.2 362.6L712.4 380.8 712.4 362.9 767.2 344.7ZM712.4 380.8L700.5 314.5 700.5 296.5 712.4 362.9Z"/><path class="wl" d="M757.5 309.8L767.2 362.6 767.2 344.7 757.5 291.9Z"/><path class="rf" d="M757.5 291.9L767.2 344.7 712.4 362.9 700.5 296.5 757.5 291.9Z"/></g>
<g class="b" style="--d:14"><path class="wd" d="M362.3 362L335.6 337.8 335.6 320.1 362.3 344.3ZM443.2 345.8L420.9 354.4 420.9 336.7 443.2 328.1ZM409.8 344.6L362.3 362 362.3 344.3 409.8 326.9Z"/><path class="wl" d="M420.9 354.4L409.8 344.6 409.8 326.9 420.9 336.7Z"/><path class="rf" d="M362.3 344.3L335.6 320.1 405.1 294 443.2 328.1 420.9 336.7 409.8 326.9 362.3 344.3Z"/></g>
<g class="b" style="--d:15"><path class="wd" d="M580 369.8L557.4 347.2 557.4 335.5 580 358.1ZM607.1 361.1L580 369.8 580 358.1 607.1 349.4Z"/><path class="wl" d="M594.6 347.8L607.1 361.1 607.1 349.4 594.6 336.1Z"/><path class="rf" d="M580 358.1L557.4 335.5 569.7 331 576.5 337.4 584.5 334.7 587.7 338.4 594.6 336.1 607.1 349.4 580 358.1Z"/></g>
<g class="b" style="--d:16"><path class="wd" d="M681.3 351.9L591.8 381.5 591.8 369.8 681.3 340.2ZM591.8 381.5L580 369.8 580 358.1 591.8 369.8Z"/><path class="rf" d="M670.5 329L681.3 340.2 591.8 369.8 580 358.1 670.5 329Z"/></g>
<g class="b" style="--d:16"><path class="wd" d="M365 364.2L340.8 372.6 340.8 360.9 365 352.5ZM340.8 372.6L312.5 346.4 312.5 334.7 340.8 360.9Z"/><path class="rf" d="M365 352.5L340.8 360.9 312.5 334.7 335.6 326.1 365 352.5Z"/></g>
<g class="b" style="--d:17"><path class="wd" d="M303.3 371.9L296.6 374.3 296.6 362.6 303.3 360.2ZM296.6 374.3L279.1 358.9 279.1 347.2 296.6 362.6ZM329.6 362L303.3 371.9 303.3 360.2 329.6 350.3Z"/><path class="rf" d="M303.3 360.2L296.6 362.6 279.1 347.2 312.5 334.7 329.6 350.3 303.3 360.2Z"/></g>
<g class="b" style="--d:17"><path class="wd" d="M303.3 371.9L306.4 374.3 306.4 362.7 303.3 360.2ZM306.4 374.3L313 371.9 313 360.2 306.4 362.7ZM336.6 368.5L302.8 380.3 302.8 368.7 336.6 356.8ZM302.8 380.3L296.6 374.3 296.6 362.6 302.8 368.7Z"/><path class="wl" d="M296.6 374.3L303.3 371.9 303.3 360.2 296.6 362.6Z"/><path class="rf" d="M296.6 362.6L303.3 360.2 306.4 362.7 313 360.2 310.2 357.5 329.6 350.3 336.6 356.8 302.8 368.7 296.6 362.6Z"/></g>
<g class="b" style="--d:18"><path class="wd" d="M290.4 388.1L263.4 398.1 263.4 386.4 290.4 376.4ZM263.4 398.1L242 377.3 242 365.6 263.4 386.4Z"/><path class="wl" d="M281.7 379.6L290.4 388.1 290.4 376.4 281.7 368Z"/><path class="rf" d="M281.7 368L290.4 376.4 263.4 386.4 242 365.6 245.7 359.3 279.1 347.2 296.6 362.6 281.7 368Z"/></g>
<g class="b" style="--d:19"><path class="wd" d="M305.9 383.1L290.4 388.1 290.4 376.4 305.9 371.5ZM290.4 388.1L281.7 379.6 281.7 368 290.4 376.4Z"/><path class="wl" d="M302.8 380.3L305.9 383.1 305.9 371.5 302.8 368.7Z"/><path class="rf" d="M302.8 368.7L305.9 371.5 290.4 376.4 281.7 368 296.6 362.6 302.8 368.7Z"/></g>
<g class="b" style="--d:19"><path class="wd" d="M514.2 387L494.4 393.5 494.4 381.8 514.2 375.4ZM494.4 393.5L479.7 379.9 479.7 368.3 494.4 381.8Z"/><path class="wl" d="M504.2 377.4L514.2 387 514.2 375.4 504.2 365.7Z"/><path class="rf" d="M514.2 375.4L494.4 381.8 479.7 368.3 504.3 360 508.7 364.3 504.2 365.7 514.2 375.4Z"/></g>
<g class="b" style="--d:20"><path class="wd" d="M712.4 380.8L634 407.3 634 389.7 712.4 363.2ZM634 407.3L617.3 407.6 617.3 390 634 389.7ZM617.3 407.6L600.5 390.7 600.5 373 617.3 390Z"/><path class="rf" d="M600.5 373L685.9 344.5 692.8 351.3 709.8 350.5 712.4 363.2 634 389.7 617.3 390 600.5 373Z"/></g>
<g class="b" style="--d:21"><path class="wd" d="M422.1 402.1L411.9 406 411.9 394.3 422.1 390.4ZM411.9 406L391.2 387.8 391.2 376.1 411.9 394.3Z"/><path class="wl" d="M407 388.3L422.1 402.1 422.1 390.4 407 376.6Z"/><path class="rf" d="M391.2 376.1L397.1 373.6 402.3 378.4 407 376.6 422.1 390.4 411.9 394.3 391.2 376.1Z"/></g>
<g class="b" style="--d:21"><path class="wd" d="M459.7 401.2L420.9 413.9 420.9 402.3 459.7 389.6ZM420.9 413.9L416.9 410.7 416.9 399 420.9 402.3Z"/><path class="rf" d="M459.7 389.6L420.9 402.3 416.9 399 455.3 385.2 459.7 389.6Z"/></g>
<g class="b" style="--d:22"><path class="wd" d="M422.9 416.2L403.1 423.1 403.1 411.4 422.9 404.5ZM403.1 423.1L396.9 416.7 396.9 405 403.1 411.4Z"/><path class="rf" d="M396.9 405L416.3 398.2 422.9 404.5 403.1 411.4 396.9 405Z"/></g>
<g class="b" style="--d:23"><path class="wd" d="M362.1 425.5L395.3 415.5 395.3 397.7 362.1 407.8ZM403.1 423.1L316.8 452.3 316.8 434.5 403.1 405.3ZM316.8 452.3L279.4 414.4 279.4 396.6 316.8 434.5Z"/><path class="rf" d="M279.4 396.6L332.9 379.4 362.1 407.8 395.3 397.7 403.1 405.3 316.8 434.5 279.4 396.6Z"/></g>
<g class="b" style="--d:23"><path class="wd" d="M430.6 554.8L377.4 501.3 377.4 491.5 430.6 545ZM567 510.3L569.5 512.8 569.5 503 567 500.5ZM569.5 512.8L522.7 528.1 522.7 518.3 569.5 503ZM522.7 528.1L520.2 525.5 520.2 515.8 522.7 518.3ZM520.2 525.5L430.6 554.8 430.6 545 520.2 515.8Z"/><path class="rf" d="M430.6 545L377.4 491.5 728.3 377.1 755.2 404.4 738 410 764 436.2 567 500.5 569.5 503 522.7 518.3 520.2 515.8 430.6 545Z"/></g>
<g class="b" style="--d:24"><path class="wd" d="M829.6 609.6L809.9 616 809.9 598.2 829.6 591.8ZM809.9 616L688.6 493.3 688.6 475.5 809.9 598.2Z"/><path class="wl" d="M708.3 486.9L829.6 609.6 829.6 591.8 708.3 469.1Z"/><path class="rf" d="M688.6 475.5L708.3 469.1 829.6 591.8 809.9 598.2 688.6 475.5Z"/></g>
  </g>

  <path class="route" mask="url(#routeMask)" d="M1029.7 120.1L994.5 148 984.1 147.7 920.9 147.8 913.9 147.8 911.9 175 914.6 246.2 909.7 246.2 851.2 246.7 824.4 246.9 780.7 247.1 774.9 247.2 774.9 247.2 829.6 218.5"/>

  <g class="here">
  <circle cx="829.6" cy="218.5" r="18" class="halo"/>
  <circle cx="829.6" cy="218.5" r="18" class="pulse"/>
  <circle cx="829.6" cy="218.5" r="9" class="dot"/>
  </g>

  <text class="label" x="1029.7" y="90.1" text-anchor="middle">Vasútállomás</text>
  <text class="label" x="542.4" y="538.7" text-anchor="middle">Autóbuszállomás</text>
<text class="label label-sm" x="660.1" y="403.7" text-anchor="middle">Billa</text>
<text class="label label-sm" x="149.7" y="233.6" text-anchor="middle">Lekáreň Mierová</text>
<text class="label label-sm" x="464.7" y="271.8" text-anchor="middle">Pizzéria Hacienda</text>
  <text class="here-label" x="829.6" y="180.5" text-anchor="middle">Albion</text>

  <g class="chrome">
  <path d="M1006.7 640h153.3M1006.7 636v8M1160 636v8"/>
  <text class="chrome-text" x="1083.3" y="630" text-anchor="middle">50 m</text>
  <path d="M64 64L78 56"/>
  <path d="M78 56l-5 -1 1 5Z" class="chrome-fill"/>
  <text class="chrome-text" x="60" y="70" text-anchor="end">É</text>
  </g>

  <text class="note" x="24" y="676" text-anchor="start">Tájékoztató vázlat</text>
  </svg>
  